<svg width="249" height="33" viewBox="0 0 249 33" fill="none" xmlns="http://www.w3.org/2000/svg">
<path d="M22.3358 22.0439C22.3358 23.5621 22.0438 24.9928 21.4598 26.3359C20.9051 27.6497 20.1314 28.803 19.1387 29.7957C18.146 30.7884 16.9781 31.5767 15.635 32.1607C14.292 32.7154 12.8613 32.9928 11.3431 32.9928C9.82481 32.9928 8.39416 32.7154 7.05109 32.1607C5.73722 31.5767 4.58394 30.7884 3.59124 29.7957C2.59854 28.803 1.81022 27.6497 1.22628 26.3359C0.671533 24.9928 0.39416 23.5621 0.39416 22.0439C0.39416 21.8103 0.39416 21.5913 0.39416 21.387C0.39416 21.1826 0.423358 20.9636 0.481752 20.73C0.627737 19.387 1.0073 18.1315 1.62044 16.9636C2.26277 15.7665 3.06569 14.73 4.0292 13.8541C5.0219 12.9782 6.13138 12.2921 7.35766 11.7957C8.61314 11.2994 9.9416 11.0512 11.3431 11.0512C11.8102 11.0512 12.2628 11.095 12.7007 11.1826C13.1679 11.241 13.6058 11.2994 14.0146 11.3578L12.9635 15.7811C12.6715 15.7227 12.3942 15.6789 12.1314 15.6497C11.8978 15.6205 11.635 15.6059 11.3431 15.6059C10.4672 15.6059 9.63503 15.7811 8.84671 16.1315C8.08759 16.4527 7.41606 16.9052 6.83211 17.4892C6.24817 18.0731 5.78102 18.7592 5.43066 19.5475C5.10949 20.3359 4.9489 21.168 4.9489 22.0439C4.9489 22.9198 5.10949 23.7519 5.43066 24.5402C5.78102 25.2994 6.24817 25.9709 6.83211 26.5548C7.41606 27.1388 8.08759 27.6059 8.84671 27.9563C9.63503 28.2775 10.4672 28.4381 11.3431 28.4381C12.219 28.4381 13.0511 28.2775 13.8394 27.9563C14.6277 27.6059 15.3139 27.1388 15.8978 26.5548C16.4817 25.9709 16.9343 25.2994 17.2555 24.5402C17.6058 23.7519 17.781 22.9198 17.781 22.0439V0.890618L22.3358 5.35777V22.0439ZM35.6931 32.9928C34.1749 32.9928 32.7442 32.7008 31.4011 32.1169C30.0873 31.5329 28.934 30.7446 27.9413 29.7519C26.9486 28.7592 26.1603 27.6059 25.5763 26.2921C25.0216 24.949 24.7442 23.5329 24.7442 22.0439C24.7442 20.5256 25.0216 19.1096 25.5763 17.7957C26.1603 16.4527 26.9486 15.2848 27.9413 14.2921C28.934 13.2994 30.0873 12.5257 31.4011 11.9709C32.7442 11.387 34.1749 11.095 35.6931 11.095C37.2113 11.095 38.6274 11.387 39.9413 11.9709C41.2843 12.5257 42.4522 13.2994 43.4449 14.2921C44.4376 15.2848 45.2113 16.4527 45.7661 17.7957C46.35 19.1096 46.642 20.5256 46.642 22.0439V32.9928H42.0873V22.0439C42.0873 21.1388 41.9121 20.2921 41.5617 19.5038C41.2405 18.7154 40.788 18.0293 40.204 17.4454C39.6201 16.8614 38.934 16.4089 38.1457 16.0877C37.3865 15.7373 36.569 15.5621 35.6931 15.5621C34.8172 15.5621 33.9851 15.7373 33.1968 16.0877C32.4376 16.4089 31.7661 16.8614 31.1822 17.4454C30.5982 18.0293 30.1311 18.7154 29.7807 19.5038C29.4595 20.2921 29.2989 21.1388 29.2989 22.0439C29.2989 22.9198 29.4595 23.7519 29.7807 24.5402C30.1311 25.2994 30.5982 25.9709 31.1822 26.5548C31.7661 27.1388 32.4376 27.6059 33.1968 27.9563C33.9851 28.2775 34.8172 28.4381 35.6931 28.4381C35.9851 28.4381 36.2478 28.4235 36.4814 28.3943C36.7442 28.3651 37.007 28.3213 37.2697 28.2629L38.3208 32.6862C37.007 32.8906 36.1311 32.9928 35.6931 32.9928ZM52.8668 22.0001C52.8668 22.876 53.0274 23.7081 53.3485 24.4965C53.6989 25.2848 54.1661 25.9709 54.75 26.5548C55.3339 27.1388 56.0201 27.6059 56.8084 27.9563C57.5967 28.2775 58.4288 28.4381 59.3047 28.4381V32.9928C57.8157 32.9928 56.4142 32.7154 55.1004 32.1607C53.7865 31.5767 52.6332 30.803 51.6405 29.8395C50.6478 28.876 49.8449 27.7373 49.2318 26.4235C48.6478 25.1096 48.3412 23.7081 48.312 22.2191V5.31397L52.8668 0.715435V11.095H59.2172V15.6497H52.8668V21.4308V22.0001ZM71.7475 32.9928C70.2292 32.9928 68.7986 32.7008 67.4555 32.1169C66.1416 31.5329 64.9884 30.7446 63.9957 29.7519C63.003 28.7592 62.2146 27.6059 61.6307 26.2921C61.076 24.949 60.7986 23.5329 60.7986 22.0439C60.7986 20.5256 61.076 19.1096 61.6307 17.7957C62.2146 16.4527 63.003 15.2848 63.9957 14.2921C64.9884 13.2994 66.1416 12.5257 67.4555 11.9709C68.7986 11.387 70.2292 11.095 71.7475 11.095C73.2657 11.095 74.6818 11.387 75.9957 11.9709C77.3387 12.5257 78.5066 13.2994 79.4993 14.2921C80.492 15.2848 81.2657 16.4527 81.8205 17.7957C82.4044 19.1096 82.6964 20.5256 82.6964 22.0439V32.9928H78.1416V22.0439C78.1416 21.1388 77.9665 20.2921 77.6161 19.5038C77.2949 18.7154 76.8424 18.0293 76.2584 17.4454C75.6745 16.8614 74.9884 16.4089 74.2 16.0877C73.4409 15.7373 72.6234 15.5621 71.7475 15.5621C70.8716 15.5621 70.0395 15.7373 69.2511 16.0877C68.492 16.4089 67.8205 16.8614 67.2365 17.4454C66.6526 18.0293 66.1854 18.7154 65.8351 19.5038C65.5139 20.2921 65.3533 21.1388 65.3533 22.0439C65.3533 22.9198 65.5139 23.7519 65.8351 24.5402C66.1854 25.2994 66.6526 25.9709 67.2365 26.5548C67.8205 27.1388 68.492 27.6059 69.2511 27.9563C70.0395 28.2775 70.8716 28.4381 71.7475 28.4381C72.0395 28.4381 72.3022 28.4235 72.5358 28.3943C72.7986 28.3651 73.0613 28.3213 73.3241 28.2629L74.3752 32.6862C73.0613 32.8906 72.1854 32.9928 71.7475 32.9928ZM106.206 22.0439C106.206 23.5621 105.914 24.9928 105.33 26.3359C104.776 27.6497 104.002 28.803 103.009 29.7957C102.016 30.7884 100.849 31.5767 99.5055 32.1607C98.1624 32.7154 96.7317 32.9928 95.2135 32.9928C93.6952 32.9928 92.2646 32.7154 90.9215 32.1607C89.6076 31.5767 88.4544 30.7884 87.4617 29.7957C86.469 28.803 85.6806 27.6497 85.0967 26.3359C84.542 24.9928 84.2646 23.5621 84.2646 22.0439C84.2646 21.8103 84.2646 21.5913 84.2646 21.387C84.2646 21.1826 84.2938 20.9636 84.3522 20.73C84.4982 19.387 84.8777 18.1315 85.4909 16.9636C86.1332 15.7665 86.9361 14.73 87.8996 13.8541C88.8923 12.9782 90.0018 12.2921 91.2281 11.7957C92.4836 11.2994 93.812 11.0512 95.2135 11.0512C95.6806 11.0512 96.1332 11.095 96.5711 11.1826C97.0383 11.241 97.4763 11.2994 97.885 11.3578L96.8339 15.7811C96.542 15.7227 96.2646 15.6789 96.0018 15.6497C95.7682 15.6205 95.5055 15.6059 95.2135 15.6059C94.3376 15.6059 93.5055 15.7811 92.7171 16.1315C91.958 16.4527 91.2865 16.9052 90.7025 17.4892C90.1186 18.0731 89.6514 18.7592 89.3011 19.5475C88.9799 20.3359 88.8193 21.168 88.8193 22.0439C88.8193 22.9198 88.9799 23.7519 89.3011 24.5402C89.6514 25.2994 90.1186 25.9709 90.7025 26.5548C91.2865 27.1388 91.958 27.6059 92.7171 27.9563C93.5055 28.2775 94.3376 28.4381 95.2135 28.4381C96.0894 28.4381 96.9215 28.2775 97.7098 27.9563C98.4982 27.6059 99.1843 27.1388 99.7682 26.5548C100.352 25.9709 100.805 25.2994 101.126 24.5402C101.476 23.7519 101.651 22.9198 101.651 22.0439V0.890618L106.206 5.35777V22.0439ZM119.564 11.095C121.053 11.095 122.454 11.387 123.768 11.9709C125.111 12.5257 126.279 13.2994 127.272 14.2921C128.264 15.2848 129.053 16.4527 129.637 17.7957C130.221 19.1096 130.512 20.5256 130.512 22.0439C130.512 23.5621 130.221 24.9928 129.637 26.3359C129.053 27.6497 128.264 28.803 127.272 29.7957C126.279 30.7592 125.111 31.5329 123.768 32.1169C122.454 32.6716 121.053 32.949 119.564 32.949C118.045 32.949 116.615 32.6716 115.272 32.1169C113.958 31.5329 112.804 30.7592 111.812 29.7957C110.848 28.803 110.075 27.6497 109.491 26.3359C108.936 24.9928 108.658 23.5621 108.658 22.0439C108.658 20.5256 108.936 19.1096 109.491 17.7957C110.075 16.4527 110.848 15.2848 111.812 14.2921C112.804 13.2994 113.958 12.5257 115.272 11.9709C116.615 11.387 118.045 11.095 119.564 11.095ZM119.564 28.3943C120.439 28.3943 121.272 28.2337 122.06 27.9125C122.848 27.5621 123.52 27.1096 124.075 26.5548C124.658 25.9709 125.111 25.2994 125.432 24.5402C125.783 23.7519 125.958 22.9198 125.958 22.0439C125.958 21.168 125.783 20.3359 125.432 19.5475C125.111 18.7592 124.658 18.0877 124.075 17.5329C123.52 16.949 122.848 16.4965 122.06 16.1753C121.272 15.8249 120.439 15.6497 119.564 15.6497C118.688 15.6497 117.856 15.8249 117.067 16.1753C116.279 16.4965 115.593 16.949 115.009 17.5329C114.425 18.0877 113.958 18.7592 113.607 19.5475C113.286 20.3359 113.126 21.168 113.126 22.0439C113.126 22.9198 113.286 23.7519 113.607 24.5402C113.958 25.2994 114.425 25.9709 115.009 26.5548C115.593 27.1096 116.279 27.5621 117.067 27.9125C117.856 28.2337 118.688 28.3943 119.564 28.3943ZM143.514 32.9928C141.996 32.9928 140.565 32.7008 139.222 32.1169C137.909 31.5329 136.755 30.7446 135.763 29.7519C134.77 28.7592 133.982 27.6059 133.398 26.2921C132.843 24.949 132.565 23.5329 132.565 22.0439C132.565 20.5256 132.843 19.1096 133.398 17.7957C133.982 16.4527 134.77 15.2848 135.763 14.2921C136.755 13.2994 137.909 12.5257 139.222 11.9709C140.565 11.387 141.996 11.095 143.514 11.095C145.033 11.095 146.449 11.387 147.763 11.9709C149.106 12.5257 150.274 13.2994 151.266 14.2921C152.259 15.2848 153.033 16.4527 153.587 17.7957C154.171 19.1096 154.463 20.5256 154.463 22.0439V32.9928H149.909V22.0439C149.909 21.1388 149.733 20.2921 149.383 19.5038C149.062 18.7154 148.609 18.0293 148.025 17.4454C147.441 16.8614 146.755 16.4089 145.967 16.0877C145.208 15.7373 144.39 15.5621 143.514 15.5621C142.638 15.5621 141.806 15.7373 141.018 16.0877C140.259 16.4089 139.587 16.8614 139.003 17.4454C138.419 18.0293 137.952 18.7154 137.602 19.5038C137.281 20.2921 137.12 21.1388 137.12 22.0439C137.12 22.9198 137.281 23.7519 137.602 24.5402C137.952 25.2994 138.419 25.9709 139.003 26.5548C139.587 27.1388 140.259 27.6059 141.018 27.9563C141.806 28.2775 142.638 28.4381 143.514 28.4381C143.806 28.4381 144.069 28.4235 144.303 28.3943C144.565 28.3651 144.828 28.3213 145.091 28.2629L146.142 32.6862C144.828 32.8906 143.952 32.9928 143.514 32.9928ZM160.688 22.0001C160.688 22.876 160.848 23.7081 161.17 24.4965C161.52 25.2848 161.987 25.9709 162.571 26.5548C163.155 27.1388 163.841 27.6059 164.629 27.9563C165.418 28.2775 166.25 28.4381 167.126 28.4381V32.9928C165.637 32.9928 164.235 32.7154 162.921 32.1607C161.608 31.5767 160.454 30.803 159.462 29.8395C158.469 28.876 157.666 27.7373 157.053 26.4235C156.469 25.1096 156.162 23.7081 156.133 22.2191V5.31397L160.688 0.715435V11.095H167.038V15.6497H160.688V21.4308V22.0001ZM178.079 5.40156L182.634 0.846823V32.9928H178.079V5.40156ZM196.12 32.9928C194.602 32.9928 193.171 32.7008 191.828 32.1169C190.514 31.5329 189.361 30.7446 188.368 29.7519C187.376 28.7592 186.587 27.6059 186.004 26.2921C185.449 24.949 185.171 23.5329 185.171 22.0439C185.171 20.5256 185.449 19.1096 186.004 17.7957C186.587 16.4527 187.376 15.2848 188.368 14.2921C189.361 13.2994 190.514 12.5257 191.828 11.9709C193.171 11.387 194.602 11.095 196.12 11.095C197.639 11.095 199.055 11.387 200.368 11.9709C201.712 12.5257 202.879 13.2994 203.872 14.2921C204.865 15.2848 205.639 16.4527 206.193 17.7957C206.777 19.1096 207.069 20.5256 207.069 22.0439V32.9928H202.514V22.0439C202.514 21.1388 202.339 20.2921 201.989 19.5038C201.668 18.7154 201.215 18.0293 200.631 17.4454C200.047 16.8614 199.361 16.4089 198.573 16.0877C197.814 15.7373 196.996 15.5621 196.12 15.5621C195.244 15.5621 194.412 15.7373 193.624 16.0877C192.865 16.4089 192.193 16.8614 191.609 17.4454C191.025 18.0293 190.558 18.7154 190.208 19.5038C189.887 20.2921 189.726 21.1388 189.726 22.0439C189.726 22.9198 189.887 23.7519 190.208 24.5402C190.558 25.2994 191.025 25.9709 191.609 26.5548C192.193 27.1388 192.865 27.6059 193.624 27.9563C194.412 28.2775 195.244 28.4381 196.12 28.4381C196.412 28.4381 196.675 28.4235 196.909 28.3943C197.171 28.3651 197.434 28.3213 197.697 28.2629L198.748 32.6862C197.434 32.8906 196.558 32.9928 196.12 32.9928ZM219.61 11.095C221.128 11.095 222.544 11.387 223.858 11.9709C225.201 12.5257 226.369 13.2994 227.362 14.2921C228.354 15.2848 229.128 16.4527 229.683 17.7957C230.267 19.1096 230.559 20.5256 230.559 22.0439C230.559 23.5621 230.267 24.9928 229.683 26.3359C229.128 27.6497 228.354 28.803 227.362 29.7957C226.369 30.7884 225.201 31.5767 223.858 32.1607C222.544 32.7154 221.128 32.9928 219.61 32.9928C218.092 32.9928 216.661 32.7154 215.318 32.1607C214.004 31.5767 212.851 30.7884 211.858 29.7957C210.865 28.803 210.077 27.6497 209.493 26.3359C208.938 24.9928 208.661 23.5621 208.661 22.0439V5.40156L213.216 0.934413V22.0439C213.216 22.9198 213.376 23.7519 213.697 24.5402C214.048 25.2994 214.515 25.9709 215.099 26.5548C215.683 27.1388 216.354 27.6059 217.113 27.9563C217.902 28.2775 218.734 28.4381 219.61 28.4381C220.486 28.4381 221.303 28.2775 222.062 27.9563C222.851 27.6059 223.537 27.1388 224.121 26.5548C224.705 25.9709 225.157 25.2994 225.478 24.5402C225.829 23.7519 226.004 22.9198 226.004 22.0439C226.004 21.168 225.829 20.3505 225.478 19.5913C225.157 18.803 224.705 18.1169 224.121 17.5329C223.537 16.949 222.851 16.4965 222.062 16.1753C221.303 15.8249 220.486 15.6497 219.61 15.6497C219.318 15.6497 219.04 15.6643 218.778 15.6935C218.515 15.7227 218.267 15.7665 218.033 15.8249L216.982 11.4016C217.391 11.3432 217.8 11.2848 218.208 11.2264C218.646 11.1388 219.113 11.095 219.61 11.095ZM248.647 15.7373C247.771 15.7373 246.939 15.9125 246.151 16.2629C245.392 16.584 244.72 17.0512 244.136 17.6643C243.581 18.2483 243.129 18.9344 242.779 19.7227C242.457 20.4819 242.297 21.2994 242.297 22.1753C242.268 23.6643 241.961 25.0658 241.377 26.3797C240.793 27.6643 239.99 28.803 238.968 29.7957C237.976 30.7592 236.808 31.5329 235.465 32.1169C234.151 32.6716 232.749 32.949 231.26 32.949V28.2629C232.136 28.2629 232.954 28.1023 233.713 27.7811C234.501 27.4308 235.173 26.9782 235.727 26.4235C236.311 25.8395 236.764 25.168 237.085 24.4089C237.436 23.6205 237.611 22.7884 237.611 21.9125C237.64 20.4235 237.932 19.022 238.487 17.7081C239.071 16.3943 239.844 15.241 240.808 14.2483C241.8 13.2556 242.954 12.4819 244.268 11.9271C245.581 11.3432 246.983 11.0512 248.472 11.0512L248.647 15.7373Z" fill="#232323"/>
</svg>
