<svg width="137" height="53" viewBox="0 0 137 53" fill="none" xmlns="http://www.w3.org/2000/svg">
<path d="M21.8906 15.0312V3.5H24.0176V17H22.0928L21.8906 15.0312ZM15.7031 12.3506V12.166C15.7031 11.4453 15.7881 10.7891 15.958 10.1973C16.1279 9.59961 16.374 9.08691 16.6963 8.65918C17.0186 8.22559 17.4111 7.89453 17.874 7.66602C18.3369 7.43164 18.8584 7.31445 19.4385 7.31445C20.0127 7.31445 20.5166 7.42578 20.9502 7.64844C21.3838 7.87109 21.7529 8.19043 22.0576 8.60645C22.3623 9.0166 22.6055 9.50879 22.7871 10.083C22.9688 10.6514 23.0977 11.2842 23.1738 11.9814V12.5703C23.0977 13.25 22.9688 13.8711 22.7871 14.4336C22.6055 14.9961 22.3623 15.4824 22.0576 15.8926C21.7529 16.3027 21.3809 16.6191 20.9414 16.8418C20.5078 17.0645 20.001 17.1758 19.4209 17.1758C18.8467 17.1758 18.3281 17.0557 17.8652 16.8154C17.4082 16.5752 17.0186 16.2383 16.6963 15.8047C16.374 15.3711 16.1279 14.8613 15.958 14.2754C15.7881 13.6836 15.7031 13.042 15.7031 12.3506ZM17.8213 12.166V12.3506C17.8213 12.7842 17.8594 13.1885 17.9355 13.5635C18.0176 13.9385 18.1436 14.2695 18.3135 14.5566C18.4834 14.8379 18.7031 15.0605 18.9727 15.2246C19.248 15.3828 19.5762 15.4619 19.957 15.4619C20.4375 15.4619 20.833 15.3564 21.1436 15.1455C21.4541 14.9346 21.6973 14.6504 21.873 14.293C22.0547 13.9297 22.1777 13.5254 22.2422 13.0801V11.4893C22.207 11.1436 22.1338 10.8213 22.0225 10.5225C21.917 10.2236 21.7734 9.96289 21.5918 9.74023C21.4102 9.51172 21.1846 9.33594 20.915 9.21289C20.6514 9.08398 20.3379 9.01953 19.9746 9.01953C19.5879 9.01953 19.2598 9.10156 18.9902 9.26562C18.7207 9.42969 18.498 9.65527 18.3223 9.94238C18.1523 10.2295 18.0264 10.5635 17.9443 10.9443C17.8623 11.3252 17.8213 11.7324 17.8213 12.166ZM30.4248 17.1758C29.7217 17.1758 29.0859 17.0615 28.5176 16.833C27.9551 16.5986 27.4746 16.2734 27.0762 15.8574C26.6836 15.4414 26.3818 14.9521 26.1709 14.3896C25.96 13.8271 25.8545 13.2207 25.8545 12.5703V12.2188C25.8545 11.4746 25.9629 10.8008 26.1797 10.1973C26.3965 9.59375 26.6982 9.07812 27.085 8.65039C27.4717 8.2168 27.9287 7.88574 28.4561 7.65723C28.9834 7.42871 29.5547 7.31445 30.1699 7.31445C30.8496 7.31445 31.4443 7.42871 31.9541 7.65723C32.4639 7.88574 32.8857 8.20801 33.2197 8.62402C33.5596 9.03418 33.8115 9.52344 33.9756 10.0918C34.1455 10.6602 34.2305 11.2871 34.2305 11.9727V12.8779H26.8828V11.3574H32.1387V11.1904C32.127 10.8096 32.0508 10.4521 31.9102 10.1182C31.7754 9.78418 31.5674 9.51465 31.2861 9.30957C31.0049 9.10449 30.6299 9.00195 30.1611 9.00195C29.8096 9.00195 29.4961 9.07812 29.2207 9.23047C28.9512 9.37695 28.7256 9.59082 28.5439 9.87207C28.3623 10.1533 28.2217 10.4932 28.1221 10.8916C28.0283 11.2842 27.9814 11.7266 27.9814 12.2188V12.5703C27.9814 12.9863 28.0371 13.373 28.1484 13.7305C28.2656 14.082 28.4355 14.3896 28.6582 14.6533C28.8809 14.917 29.1504 15.125 29.4668 15.2773C29.7832 15.4238 30.1436 15.4971 30.5479 15.4971C31.0576 15.4971 31.5117 15.3945 31.9102 15.1895C32.3086 14.9844 32.6543 14.6943 32.9473 14.3193L34.0635 15.4004C33.8584 15.6992 33.5918 15.9863 33.2637 16.2617C32.9355 16.5312 32.5342 16.751 32.0596 16.9209C31.5908 17.0908 31.0459 17.1758 30.4248 17.1758ZM38.8535 15.3213L41.1826 7.49023H43.3799L40.0752 17H38.7041L38.8535 15.3213ZM37.0693 7.49023L39.4424 15.3564L39.5566 17H38.1855L34.8633 7.49023H37.0693ZM48.7588 17.1758C48.0557 17.1758 47.4199 17.0615 46.8516 16.833C46.2891 16.5986 45.8086 16.2734 45.4102 15.8574C45.0176 15.4414 44.7158 14.9521 44.5049 14.3896C44.2939 13.8271 44.1885 13.2207 44.1885 12.5703V12.2188C44.1885 11.4746 44.2969 10.8008 44.5137 10.1973C44.7305 9.59375 45.0322 9.07812 45.4189 8.65039C45.8057 8.2168 46.2627 7.88574 46.79 7.65723C47.3174 7.42871 47.8887 7.31445 48.5039 7.31445C49.1836 7.31445 49.7783 7.42871 50.2881 7.65723C50.7979 7.88574 51.2197 8.20801 51.5537 8.62402C51.8936 9.03418 52.1455 9.52344 52.3096 10.0918C52.4795 10.6602 52.5645 11.2871 52.5645 11.9727V12.8779H45.2168V11.3574H50.4727V11.1904C50.4609 10.8096 50.3848 10.4521 50.2441 10.1182C50.1094 9.78418 49.9014 9.51465 49.6201 9.30957C49.3389 9.10449 48.9639 9.00195 48.4951 9.00195C48.1436 9.00195 47.8301 9.07812 47.5547 9.23047C47.2852 9.37695 47.0596 9.59082 46.8779 9.87207C46.6963 10.1533 46.5557 10.4932 46.4561 10.8916C46.3623 11.2842 46.3154 11.7266 46.3154 12.2188V12.5703C46.3154 12.9863 46.3711 13.373 46.4824 13.7305C46.5996 14.082 46.7695 14.3896 46.9922 14.6533C47.2148 14.917 47.4844 15.125 47.8008 15.2773C48.1172 15.4238 48.4775 15.4971 48.8818 15.4971C49.3916 15.4971 49.8457 15.3945 50.2441 15.1895C50.6426 14.9844 50.9883 14.6943 51.2812 14.3193L52.3975 15.4004C52.1924 15.6992 51.9258 15.9863 51.5977 16.2617C51.2695 16.5312 50.8682 16.751 50.3936 16.9209C49.9248 17.0908 49.3799 17.1758 48.7588 17.1758ZM56.4844 3.5V17H54.3574V3.5H56.4844ZM58.4004 12.3506V12.1484C58.4004 11.4629 58.5 10.8271 58.6992 10.2412C58.8984 9.64941 59.1855 9.13672 59.5605 8.70312C59.9414 8.26367 60.4043 7.92383 60.9492 7.68359C61.5 7.4375 62.1211 7.31445 62.8125 7.31445C63.5098 7.31445 64.1309 7.4375 64.6758 7.68359C65.2266 7.92383 65.6924 8.26367 66.0732 8.70312C66.4541 9.13672 66.7441 9.64941 66.9434 10.2412C67.1426 10.8271 67.2422 11.4629 67.2422 12.1484V12.3506C67.2422 13.0361 67.1426 13.6719 66.9434 14.2578C66.7441 14.8438 66.4541 15.3564 66.0732 15.7959C65.6924 16.2295 65.2295 16.5693 64.6846 16.8154C64.1396 17.0557 63.5215 17.1758 62.8301 17.1758C62.1328 17.1758 61.5088 17.0557 60.958 16.8154C60.4131 16.5693 59.9502 16.2295 59.5693 15.7959C59.1885 15.3564 58.8984 14.8438 58.6992 14.2578C58.5 13.6719 58.4004 13.0361 58.4004 12.3506ZM60.5186 12.1484V12.3506C60.5186 12.7783 60.5625 13.1826 60.6504 13.5635C60.7383 13.9443 60.876 14.2783 61.0635 14.5654C61.251 14.8525 61.4912 15.0781 61.7842 15.2422C62.0771 15.4062 62.4258 15.4883 62.8301 15.4883C63.2227 15.4883 63.5625 15.4062 63.8496 15.2422C64.1426 15.0781 64.3828 14.8525 64.5703 14.5654C64.7578 14.2783 64.8955 13.9443 64.9834 13.5635C65.0771 13.1826 65.124 12.7783 65.124 12.3506V12.1484C65.124 11.7266 65.0771 11.3281 64.9834 10.9531C64.8955 10.5723 64.7549 10.2354 64.5615 9.94238C64.374 9.64941 64.1338 9.4209 63.8408 9.25684C63.5537 9.08691 63.2109 9.00195 62.8125 9.00195C62.4141 9.00195 62.0684 9.08691 61.7754 9.25684C61.4883 9.4209 61.251 9.64941 61.0635 9.94238C60.876 10.2354 60.7383 10.5723 60.6504 10.9531C60.5625 11.3281 60.5186 11.7266 60.5186 12.1484ZM71.1445 9.31836V20.6562H69.0264V7.49023H70.9775L71.1445 9.31836ZM77.3408 12.1572V12.3418C77.3408 13.0332 77.2588 13.6748 77.0947 14.2666C76.9365 14.8525 76.6992 15.3652 76.3828 15.8047C76.0723 16.2383 75.6885 16.5752 75.2314 16.8154C74.7744 17.0557 74.2471 17.1758 73.6494 17.1758C73.0576 17.1758 72.5391 17.0674 72.0938 16.8506C71.6543 16.6279 71.2822 16.3145 70.9775 15.9102C70.6729 15.5059 70.4268 15.0312 70.2393 14.4863C70.0576 13.9355 69.9287 13.332 69.8525 12.6758V11.9639C69.9287 11.2666 70.0576 10.6338 70.2393 10.0654C70.4268 9.49707 70.6729 9.00781 70.9775 8.59766C71.2822 8.1875 71.6543 7.87109 72.0938 7.64844C72.5332 7.42578 73.0459 7.31445 73.6318 7.31445C74.2295 7.31445 74.7598 7.43164 75.2227 7.66602C75.6855 7.89453 76.0752 8.22266 76.3916 8.65039C76.708 9.07227 76.9453 9.58203 77.1035 10.1797C77.2617 10.7715 77.3408 11.4307 77.3408 12.1572ZM75.2227 12.3418V12.1572C75.2227 11.7178 75.1816 11.3105 75.0996 10.9355C75.0176 10.5547 74.8887 10.2207 74.7129 9.93359C74.5371 9.64648 74.3115 9.42383 74.0361 9.26562C73.7666 9.10156 73.4414 9.01953 73.0605 9.01953C72.6855 9.01953 72.3633 9.08398 72.0938 9.21289C71.8242 9.33594 71.5986 9.50879 71.417 9.73145C71.2354 9.9541 71.0947 10.2148 70.9951 10.5137C70.8955 10.8066 70.8252 11.126 70.7842 11.4717V13.1768C70.8545 13.5986 70.9746 13.9854 71.1445 14.3369C71.3145 14.6885 71.5547 14.9697 71.8652 15.1807C72.1816 15.3857 72.5859 15.4883 73.0781 15.4883C73.459 15.4883 73.7842 15.4062 74.0537 15.2422C74.3232 15.0781 74.543 14.8525 74.7129 14.5654C74.8887 14.2725 75.0176 13.9355 75.0996 13.5547C75.1816 13.1738 75.2227 12.7695 75.2227 12.3418ZM83.335 17.1758C82.6318 17.1758 81.9961 17.0615 81.4277 16.833C80.8652 16.5986 80.3848 16.2734 79.9863 15.8574C79.5938 15.4414 79.292 14.9521 79.0811 14.3896C78.8701 13.8271 78.7646 13.2207 78.7646 12.5703V12.2188C78.7646 11.4746 78.873 10.8008 79.0898 10.1973C79.3066 9.59375 79.6084 9.07812 79.9951 8.65039C80.3818 8.2168 80.8389 7.88574 81.3662 7.65723C81.8936 7.42871 82.4648 7.31445 83.0801 7.31445C83.7598 7.31445 84.3545 7.42871 84.8643 7.65723C85.374 7.88574 85.7959 8.20801 86.1299 8.62402C86.4697 9.03418 86.7217 9.52344 86.8857 10.0918C87.0557 10.6602 87.1406 11.2871 87.1406 11.9727V12.8779H79.793V11.3574H85.0488V11.1904C85.0371 10.8096 84.9609 10.4521 84.8203 10.1182C84.6855 9.78418 84.4775 9.51465 84.1963 9.30957C83.915 9.10449 83.54 9.00195 83.0713 9.00195C82.7197 9.00195 82.4062 9.07812 82.1309 9.23047C81.8613 9.37695 81.6357 9.59082 81.4541 9.87207C81.2725 10.1533 81.1318 10.4932 81.0322 10.8916C80.9385 11.2842 80.8916 11.7266 80.8916 12.2188V12.5703C80.8916 12.9863 80.9473 13.373 81.0586 13.7305C81.1758 14.082 81.3457 14.3896 81.5684 14.6533C81.791 14.917 82.0605 15.125 82.377 15.2773C82.6934 15.4238 83.0537 15.4971 83.458 15.4971C83.9678 15.4971 84.4219 15.3945 84.8203 15.1895C85.2188 14.9844 85.5645 14.6943 85.8574 14.3193L86.9736 15.4004C86.7686 15.6992 86.502 15.9863 86.1738 16.2617C85.8457 16.5312 85.4443 16.751 84.9697 16.9209C84.501 17.0908 83.9561 17.1758 83.335 17.1758ZM94.5938 15.0312V3.5H96.7207V17H94.7959L94.5938 15.0312ZM88.4062 12.3506V12.166C88.4062 11.4453 88.4912 10.7891 88.6611 10.1973C88.8311 9.59961 89.0771 9.08691 89.3994 8.65918C89.7217 8.22559 90.1143 7.89453 90.5771 7.66602C91.04 7.43164 91.5615 7.31445 92.1416 7.31445C92.7158 7.31445 93.2197 7.42578 93.6533 7.64844C94.0869 7.87109 94.4561 8.19043 94.7607 8.60645C95.0654 9.0166 95.3086 9.50879 95.4902 10.083C95.6719 10.6514 95.8008 11.2842 95.877 11.9814V12.5703C95.8008 13.25 95.6719 13.8711 95.4902 14.4336C95.3086 14.9961 95.0654 15.4824 94.7607 15.8926C94.4561 16.3027 94.084 16.6191 93.6445 16.8418C93.2109 17.0645 92.7041 17.1758 92.124 17.1758C91.5498 17.1758 91.0312 17.0557 90.5684 16.8154C90.1113 16.5752 89.7217 16.2383 89.3994 15.8047C89.0771 15.3711 88.8311 14.8613 88.6611 14.2754C88.4912 13.6836 88.4062 13.042 88.4062 12.3506ZM90.5244 12.166V12.3506C90.5244 12.7842 90.5625 13.1885 90.6387 13.5635C90.7207 13.9385 90.8467 14.2695 91.0166 14.5566C91.1865 14.8379 91.4062 15.0605 91.6758 15.2246C91.9512 15.3828 92.2793 15.4619 92.6602 15.4619C93.1406 15.4619 93.5361 15.3564 93.8467 15.1455C94.1572 14.9346 94.4004 14.6504 94.5762 14.293C94.7578 13.9297 94.8809 13.5254 94.9453 13.0801V11.4893C94.9102 11.1436 94.8369 10.8213 94.7256 10.5225C94.6201 10.2236 94.4766 9.96289 94.2949 9.74023C94.1133 9.51172 93.8877 9.33594 93.6182 9.21289C93.3545 9.08398 93.041 9.01953 92.6777 9.01953C92.291 9.01953 91.9629 9.10156 91.6934 9.26562C91.4238 9.42969 91.2012 9.65527 91.0254 9.94238C90.8555 10.2295 90.7295 10.5635 90.6475 10.9443C90.5654 11.3252 90.5244 11.7324 90.5244 12.166ZM103.427 3.5H105.545V14.9697L105.343 17H103.427V3.5ZM111.75 12.1572V12.3418C111.75 13.0449 111.671 13.6924 111.513 14.2842C111.36 14.8701 111.126 15.3799 110.81 15.8135C110.499 16.2471 110.112 16.584 109.649 16.8242C109.192 17.0586 108.662 17.1758 108.059 17.1758C107.467 17.1758 106.951 17.0645 106.512 16.8418C106.072 16.6191 105.703 16.3027 105.404 15.8926C105.111 15.4824 104.874 14.9932 104.692 14.4248C104.511 13.8564 104.382 13.2295 104.306 12.5439V11.9551C104.382 11.2637 104.511 10.6367 104.692 10.0742C104.874 9.50586 105.111 9.0166 105.404 8.60645C105.703 8.19043 106.069 7.87109 106.503 7.64844C106.942 7.42578 107.455 7.31445 108.041 7.31445C108.65 7.31445 109.187 7.43164 109.649 7.66602C110.118 7.90039 110.508 8.23438 110.818 8.66797C111.129 9.0957 111.36 9.60547 111.513 10.1973C111.671 10.7891 111.75 11.4424 111.75 12.1572ZM109.632 12.3418V12.1572C109.632 11.7295 109.597 11.3281 109.526 10.9531C109.456 10.5723 109.339 10.2383 109.175 9.95117C109.017 9.66406 108.8 9.43848 108.524 9.27441C108.255 9.10449 107.918 9.01953 107.514 9.01953C107.139 9.01953 106.816 9.08398 106.547 9.21289C106.277 9.3418 106.052 9.51758 105.87 9.74023C105.688 9.96289 105.545 10.2207 105.439 10.5137C105.34 10.8066 105.272 11.123 105.237 11.4629V13.0537C105.29 13.4932 105.401 13.8975 105.571 14.2666C105.747 14.6299 105.993 14.9229 106.31 15.1455C106.626 15.3623 107.033 15.4707 107.531 15.4707C107.924 15.4707 108.255 15.3916 108.524 15.2334C108.794 15.0752 109.008 14.8555 109.166 14.5742C109.33 14.2871 109.447 13.9531 109.518 13.5723C109.594 13.1914 109.632 12.7812 109.632 12.3418ZM116.197 15.9629L118.781 7.49023H121.049L117.234 18.4502C117.146 18.6846 117.032 18.9395 116.892 19.2148C116.751 19.4902 116.566 19.751 116.338 19.9971C116.115 20.249 115.837 20.4512 115.503 20.6035C115.169 20.7617 114.765 20.8408 114.29 20.8408C114.103 20.8408 113.921 20.8232 113.745 20.7881C113.575 20.7588 113.414 20.7266 113.262 20.6914L113.253 19.0742C113.312 19.0801 113.382 19.0859 113.464 19.0918C113.552 19.0977 113.622 19.1006 113.675 19.1006C114.026 19.1006 114.319 19.0566 114.554 18.9688C114.788 18.8867 114.979 18.752 115.125 18.5645C115.277 18.377 115.406 18.125 115.512 17.8086L116.197 15.9629ZM114.738 7.49023L116.997 14.6094L117.375 16.8418L115.907 17.2197L112.453 7.49023H114.738Z" fill="#ABABAB"/>
<path d="M12.24 41C12.24 41.832 12.08 42.616 11.76 43.352C11.456 44.072 11.032 44.704 10.488 45.248C9.944 45.792 9.304 46.224 8.568 46.544C7.832 46.848 7.048 47 6.216 47C5.384 47 4.6 46.848 3.864 46.544C3.144 46.224 2.512 45.792 1.968 45.248C1.424 44.704 0.992 44.072 0.672 43.352C0.368 42.616 0.216 41.832 0.216 41C0.216 40.872 0.216 40.752 0.216 40.64C0.216 40.528 0.232 40.408 0.264 40.28C0.344 39.544 0.552 38.856 0.888 38.216C1.24 37.56 1.68 36.992 2.208 36.512C2.752 36.032 3.36 35.656 4.032 35.384C4.72 35.112 5.448 34.976 6.216 34.976C6.472 34.976 6.72 35 6.96 35.048C7.216 35.08 7.456 35.112 7.68 35.144L7.104 37.568C6.944 37.536 6.792 37.512 6.648 37.496C6.52 37.48 6.376 37.472 6.216 37.472C5.736 37.472 5.28 37.568 4.848 37.76C4.432 37.936 4.064 38.184 3.744 38.504C3.424 38.824 3.168 39.2 2.976 39.632C2.8 40.064 2.712 40.52 2.712 41C2.712 41.48 2.8 41.936 2.976 42.368C3.168 42.784 3.424 43.152 3.744 43.472C4.064 43.792 4.432 44.048 4.848 44.24C5.28 44.416 5.736 44.504 6.216 44.504C6.696 44.504 7.152 44.416 7.584 44.24C8.016 44.048 8.392 43.792 8.712 43.472C9.032 43.152 9.28 42.784 9.456 42.368C9.648 41.936 9.744 41.48 9.744 41V29.408L12.24 31.856V41ZM19.5598 47C18.7278 47 17.9438 46.84 17.2078 46.52C16.4878 46.2 15.8558 45.768 15.3118 45.224C14.7678 44.68 14.3358 44.048 14.0158 43.328C13.7118 42.592 13.5598 41.816 13.5598 41C13.5598 40.168 13.7118 39.392 14.0158 38.672C14.3358 37.936 14.7678 37.296 15.3118 36.752C15.8558 36.208 16.4878 35.784 17.2078 35.48C17.9438 35.16 18.7278 35 19.5598 35C20.3918 35 21.1678 35.16 21.8878 35.48C22.6238 35.784 23.2638 36.208 23.8078 36.752C24.3518 37.296 24.7758 37.936 25.0798 38.672C25.3998 39.392 25.5598 40.168 25.5598 41V47H23.0638V41C23.0638 40.504 22.9678 40.04 22.7758 39.608C22.5998 39.176 22.3518 38.8 22.0318 38.48C21.7118 38.16 21.3358 37.912 20.9038 37.736C20.4878 37.544 20.0398 37.448 19.5598 37.448C19.0798 37.448 18.6238 37.544 18.1918 37.736C17.7758 37.912 17.4078 38.16 17.0878 38.48C16.7678 38.8 16.5118 39.176 16.3198 39.608C16.1438 40.04 16.0558 40.504 16.0558 41C16.0558 41.48 16.1438 41.936 16.3198 42.368C16.5118 42.784 16.7678 43.152 17.0878 43.472C17.4078 43.792 17.7758 44.048 18.1918 44.24C18.6238 44.416 19.0798 44.504 19.5598 44.504C19.7198 44.504 19.8638 44.496 19.9918 44.48C20.1358 44.464 20.2798 44.44 20.4238 44.408L20.9998 46.832C20.2798 46.944 19.7998 47 19.5598 47ZM28.971 40.976C28.971 41.456 29.059 41.912 29.235 42.344C29.427 42.776 29.683 43.152 30.003 43.472C30.323 43.792 30.699 44.048 31.131 44.24C31.563 44.416 32.019 44.504 32.499 44.504V47C31.683 47 30.915 46.848 30.195 46.544C29.475 46.224 28.843 45.8 28.299 45.272C27.755 44.744 27.315 44.12 26.979 43.4C26.659 42.68 26.491 41.912 26.475 41.096V31.832L28.971 29.312V35H32.451V37.496H28.971V40.664V40.976ZM39.3176 47C38.4856 47 37.7016 46.84 36.9656 46.52C36.2456 46.2 35.6136 45.768 35.0696 45.224C34.5256 44.68 34.0936 44.048 33.7736 43.328C33.4696 42.592 33.3176 41.816 33.3176 41C33.3176 40.168 33.4696 39.392 33.7736 38.672C34.0936 37.936 34.5256 37.296 35.0696 36.752C35.6136 36.208 36.2456 35.784 36.9656 35.48C37.7016 35.16 38.4856 35 39.3176 35C40.1496 35 40.9256 35.16 41.6456 35.48C42.3816 35.784 43.0216 36.208 43.5656 36.752C44.1096 37.296 44.5336 37.936 44.8376 38.672C45.1576 39.392 45.3176 40.168 45.3176 41V47H42.8216V41C42.8216 40.504 42.7256 40.04 42.5336 39.608C42.3576 39.176 42.1096 38.8 41.7896 38.48C41.4696 38.16 41.0936 37.912 40.6616 37.736C40.2456 37.544 39.7976 37.448 39.3176 37.448C38.8376 37.448 38.3816 37.544 37.9496 37.736C37.5336 37.912 37.1656 38.16 36.8456 38.48C36.5256 38.8 36.2696 39.176 36.0776 39.608C35.9016 40.04 35.8136 40.504 35.8136 41C35.8136 41.48 35.9016 41.936 36.0776 42.368C36.2696 42.784 36.5256 43.152 36.8456 43.472C37.1656 43.792 37.5336 44.048 37.9496 44.24C38.3816 44.416 38.8376 44.504 39.3176 44.504C39.4776 44.504 39.6216 44.496 39.7496 44.48C39.8936 44.464 40.0376 44.44 40.1816 44.408L40.7576 46.832C40.0376 46.944 39.5576 47 39.3176 47ZM58.2009 41C58.2009 41.832 58.0409 42.616 57.7209 43.352C57.4169 44.072 56.9929 44.704 56.4489 45.248C55.9049 45.792 55.2649 46.224 54.5289 46.544C53.7929 46.848 53.0089 47 52.1769 47C51.3449 47 50.5609 46.848 49.8249 46.544C49.1049 46.224 48.4729 45.792 47.9289 45.248C47.3849 44.704 46.9529 44.072 46.6329 43.352C46.3289 42.616 46.1769 41.832 46.1769 41C46.1769 40.872 46.1769 40.752 46.1769 40.64C46.1769 40.528 46.1929 40.408 46.2249 40.28C46.3049 39.544 46.5129 38.856 46.8489 38.216C47.2009 37.56 47.6409 36.992 48.1689 36.512C48.7129 36.032 49.3209 35.656 49.9929 35.384C50.6809 35.112 51.4089 34.976 52.1769 34.976C52.4329 34.976 52.6809 35 52.9209 35.048C53.1769 35.08 53.4169 35.112 53.6409 35.144L53.0649 37.568C52.9049 37.536 52.7529 37.512 52.6089 37.496C52.4809 37.48 52.3369 37.472 52.1769 37.472C51.6969 37.472 51.2409 37.568 50.8089 37.76C50.3929 37.936 50.0249 38.184 49.7049 38.504C49.3849 38.824 49.1289 39.2 48.9369 39.632C48.7609 40.064 48.6729 40.52 48.6729 41C48.6729 41.48 48.7609 41.936 48.9369 42.368C49.1289 42.784 49.3849 43.152 49.7049 43.472C50.0249 43.792 50.3929 44.048 50.8089 44.24C51.2409 44.416 51.6969 44.504 52.1769 44.504C52.6569 44.504 53.1129 44.416 53.5449 44.24C53.9769 44.048 54.3529 43.792 54.6729 43.472C54.9929 43.152 55.2409 42.784 55.4169 42.368C55.6089 41.936 55.7049 41.48 55.7049 41V29.408L58.2009 31.856V41ZM65.5208 35C66.3368 35 67.1048 35.16 67.8248 35.48C68.5608 35.784 69.2008 36.208 69.7448 36.752C70.2888 37.296 70.7208 37.936 71.0408 38.672C71.3608 39.392 71.5208 40.168 71.5208 41C71.5208 41.832 71.3608 42.616 71.0408 43.352C70.7208 44.072 70.2888 44.704 69.7448 45.248C69.2008 45.776 68.5608 46.2 67.8248 46.52C67.1048 46.824 66.3368 46.976 65.5208 46.976C64.6888 46.976 63.9048 46.824 63.1688 46.52C62.4488 46.2 61.8168 45.776 61.2728 45.248C60.7448 44.704 60.3208 44.072 60.0008 43.352C59.6968 42.616 59.5448 41.832 59.5448 41C59.5448 40.168 59.6968 39.392 60.0008 38.672C60.3208 37.936 60.7448 37.296 61.2728 36.752C61.8168 36.208 62.4488 35.784 63.1688 35.48C63.9048 35.16 64.6888 35 65.5208 35ZM65.5208 44.48C66.0008 44.48 66.4568 44.392 66.8888 44.216C67.3208 44.024 67.6888 43.776 67.9928 43.472C68.3128 43.152 68.5608 42.784 68.7368 42.368C68.9288 41.936 69.0248 41.48 69.0248 41C69.0248 40.52 68.9288 40.064 68.7368 39.632C68.5608 39.2 68.3128 38.832 67.9928 38.528C67.6888 38.208 67.3208 37.96 66.8888 37.784C66.4568 37.592 66.0008 37.496 65.5208 37.496C65.0408 37.496 64.5848 37.592 64.1528 37.784C63.7208 37.96 63.3448 38.208 63.0248 38.528C62.7048 38.832 62.4488 39.2 62.2568 39.632C62.0808 40.064 61.9928 40.52 61.9928 41C61.9928 41.48 62.0808 41.936 62.2568 42.368C62.4488 42.784 62.7048 43.152 63.0248 43.472C63.3448 43.776 63.7208 44.024 64.1528 44.216C64.5848 44.392 65.0408 44.48 65.5208 44.48ZM78.6458 47C77.8138 47 77.0298 46.84 76.2938 46.52C75.5738 46.2 74.9418 45.768 74.3978 45.224C73.8538 44.68 73.4218 44.048 73.1018 43.328C72.7978 42.592 72.6458 41.816 72.6458 41C72.6458 40.168 72.7978 39.392 73.1018 38.672C73.4218 37.936 73.8538 37.296 74.3978 36.752C74.9418 36.208 75.5738 35.784 76.2938 35.48C77.0298 35.16 77.8138 35 78.6458 35C79.4778 35 80.2538 35.16 80.9738 35.48C81.7098 35.784 82.3498 36.208 82.8938 36.752C83.4378 37.296 83.8618 37.936 84.1658 38.672C84.4858 39.392 84.6458 40.168 84.6458 41V47H82.1498V41C82.1498 40.504 82.0538 40.04 81.8618 39.608C81.6858 39.176 81.4378 38.8 81.1178 38.48C80.7978 38.16 80.4218 37.912 79.9898 37.736C79.5738 37.544 79.1258 37.448 78.6458 37.448C78.1658 37.448 77.7098 37.544 77.2778 37.736C76.8618 37.912 76.4938 38.16 76.1738 38.48C75.8538 38.8 75.5978 39.176 75.4058 39.608C75.2298 40.04 75.1418 40.504 75.1418 41C75.1418 41.48 75.2298 41.936 75.4058 42.368C75.5978 42.784 75.8538 43.152 76.1738 43.472C76.4938 43.792 76.8618 44.048 77.2778 44.24C77.7098 44.416 78.1658 44.504 78.6458 44.504C78.8058 44.504 78.9498 44.496 79.0778 44.48C79.2218 44.464 79.3658 44.44 79.5098 44.408L80.0858 46.832C79.3658 46.944 78.8858 47 78.6458 47ZM88.0569 40.976C88.0569 41.456 88.1449 41.912 88.3209 42.344C88.5129 42.776 88.7689 43.152 89.0889 43.472C89.4089 43.792 89.7849 44.048 90.2169 44.24C90.6489 44.416 91.1049 44.504 91.5849 44.504V47C90.7689 47 90.0009 46.848 89.2809 46.544C88.5609 46.224 87.9289 45.8 87.3849 45.272C86.8409 44.744 86.4009 44.12 86.0649 43.4C85.7449 42.68 85.5769 41.912 85.5609 41.096V31.832L88.0569 29.312V35H91.5369V37.496H88.0569V40.664V40.976ZM97.5872 31.88L100.083 29.384V47H97.5872V31.88ZM107.474 47C106.642 47 105.858 46.84 105.122 46.52C104.402 46.2 103.77 45.768 103.226 45.224C102.682 44.68 102.25 44.048 101.93 43.328C101.626 42.592 101.474 41.816 101.474 41C101.474 40.168 101.626 39.392 101.93 38.672C102.25 37.936 102.682 37.296 103.226 36.752C103.77 36.208 104.402 35.784 105.122 35.48C105.858 35.16 106.642 35 107.474 35C108.306 35 109.082 35.16 109.802 35.48C110.538 35.784 111.178 36.208 111.722 36.752C112.266 37.296 112.69 37.936 112.994 38.672C113.314 39.392 113.474 40.168 113.474 41V47H110.978V41C110.978 40.504 110.882 40.04 110.69 39.608C110.514 39.176 110.266 38.8 109.946 38.48C109.626 38.16 109.25 37.912 108.818 37.736C108.402 37.544 107.954 37.448 107.474 37.448C106.994 37.448 106.538 37.544 106.106 37.736C105.69 37.912 105.322 38.16 105.002 38.48C104.682 38.8 104.426 39.176 104.234 39.608C104.058 40.04 103.97 40.504 103.97 41C103.97 41.48 104.058 41.936 104.234 42.368C104.426 42.784 104.682 43.152 105.002 43.472C105.322 43.792 105.69 44.048 106.106 44.24C106.538 44.416 106.994 44.504 107.474 44.504C107.634 44.504 107.778 44.496 107.906 44.48C108.05 44.464 108.194 44.44 108.338 44.408L108.914 46.832C108.194 46.944 107.714 47 107.474 47ZM120.346 35C121.178 35 121.954 35.16 122.674 35.48C123.41 35.784 124.05 36.208 124.594 36.752C125.138 37.296 125.562 37.936 125.866 38.672C126.186 39.392 126.346 40.168 126.346 41C126.346 41.832 126.186 42.616 125.866 43.352C125.562 44.072 125.138 44.704 124.594 45.248C124.05 45.792 123.41 46.224 122.674 46.544C121.954 46.848 121.178 47 120.346 47C119.514 47 118.73 46.848 117.994 46.544C117.274 46.224 116.642 45.792 116.098 45.248C115.554 44.704 115.122 44.072 114.802 43.352C114.498 42.616 114.346 41.832 114.346 41V31.88L116.842 29.432V41C116.842 41.48 116.93 41.936 117.106 42.368C117.298 42.784 117.554 43.152 117.874 43.472C118.194 43.792 118.562 44.048 118.978 44.24C119.41 44.416 119.866 44.504 120.346 44.504C120.826 44.504 121.274 44.416 121.69 44.24C122.122 44.048 122.498 43.792 122.818 43.472C123.138 43.152 123.386 42.784 123.562 42.368C123.754 41.936 123.85 41.48 123.85 41C123.85 40.52 123.754 40.072 123.562 39.656C123.386 39.224 123.138 38.848 122.818 38.528C122.498 38.208 122.122 37.96 121.69 37.784C121.274 37.592 120.826 37.496 120.346 37.496C120.186 37.496 120.034 37.504 119.89 37.52C119.746 37.536 119.61 37.56 119.482 37.592L118.906 35.168C119.13 35.136 119.354 35.104 119.578 35.072C119.818 35.024 120.074 35 120.346 35ZM136.259 37.544C135.779 37.544 135.323 37.64 134.891 37.832C134.475 38.008 134.107 38.264 133.787 38.6C133.483 38.92 133.235 39.296 133.043 39.728C132.867 40.144 132.779 40.592 132.779 41.072C132.763 41.888 132.595 42.656 132.275 43.376C131.955 44.08 131.515 44.704 130.955 45.248C130.411 45.776 129.771 46.2 129.035 46.52C128.315 46.824 127.547 46.976 126.731 46.976V44.408C127.211 44.408 127.659 44.32 128.075 44.144C128.507 43.952 128.875 43.704 129.179 43.4C129.499 43.08 129.747 42.712 129.923 42.296C130.115 41.864 130.211 41.408 130.211 40.928C130.227 40.112 130.387 39.344 130.691 38.624C131.011 37.904 131.435 37.272 131.963 36.728C132.507 36.184 133.139 35.76 133.859 35.456C134.579 35.136 135.347 34.976 136.163 34.976L136.259 37.544Z" fill="#232323"/>
</svg>
