<svg width="114" height="38" viewBox="0 0 114 38" fill="none" xmlns="http://www.w3.org/2000/svg">
<path d="M23.49 28.512C24.174 29.376 24.516 30.654 24.516 32.346C24.516 34.002 23.868 35.352 22.572 36.396C21.312 37.404 19.566 37.908 17.334 37.908C16.038 37.908 14.382 37.764 12.366 37.476C8.40599 36.864 5.84999 36.558 4.69799 36.558C3.58199 36.558 2.78999 36.594 2.32199 36.666C1.85399 36.702 1.24199 36.756 0.485992 36.828L7.01999 1.188H18.846L13.446 30.888C13.914 30.96 14.364 30.996 14.796 30.996H16.146C19.17 30.996 21.618 30.168 23.49 28.512Z" fill="black"/>
<path d="M27.5349 36.828L34.3929 1.188H46.2729L39.3069 36.828H27.5349Z" fill="black"/>
<path d="M48.5084 28.836C48.5084 27.432 48.6884 25.83 49.0484 24.03L53.4224 1.188H65.3564L61.0364 24.192C60.7124 25.884 60.5504 27.36 60.5504 28.62C60.5504 29.844 60.8024 30.78 61.3064 31.428C61.8464 32.076 62.6024 32.4 63.5744 32.4C64.5464 32.4 65.3384 32.274 65.9504 32.022C66.5624 31.77 67.1204 31.338 67.6244 30.726C68.5964 29.502 69.3885 27.324 70.0005 24.192L74.3745 1.188H82.5284L78.2085 24.138C77.2004 29.25 75.3104 32.832 72.5384 34.884C69.8384 36.9 65.8244 37.908 60.4964 37.908C56.5004 37.908 53.4404 37.044 51.3164 35.316C49.4444 33.804 48.5084 31.644 48.5084 28.836Z" fill="black"/>
<path d="M87.9255 10.53C86.7015 9.594 86.0895 8.136 86.0895 6.156C86.0895 4.14 86.7375 2.61 88.0335 1.566C89.3655 0.522 91.1655 0 93.4335 0C94.8735 0 97.3035 0.252 100.723 0.756L104.395 1.296C105.619 1.44 106.861 1.512 108.121 1.512C109.417 1.512 110.497 1.242 111.361 0.702001C112.657 1.854 113.305 3.258 113.305 4.914C113.305 6.57 112.567 7.992 111.091 9.18C109.579 10.44 107.851 11.07 105.907 11.07C104.971 11.07 103.747 10.944 102.235 10.692C100.471 16.236 99.5895 20.934 99.5895 24.786C99.5895 28.638 100.561 31.572 102.505 33.588C101.605 35.208 100.489 36.324 99.1575 36.936C97.8255 37.584 96.1515 37.908 94.1355 37.908C92.1555 37.908 90.5355 37.368 89.2755 36.288C88.0515 35.172 87.4395 33.48 87.4395 31.212C87.4395 28.584 88.1595 25.11 89.5995 20.79C91.0395 16.506 92.8395 12.726 94.9995 9.45C93.9555 9.342 92.8935 9.288 91.8135 9.288C89.5815 9.288 88.2855 9.702 87.9255 10.53Z" fill="black"/>
</svg>
