<svg width="313" height="119" viewBox="0 0 313 119" fill="none" xmlns="http://www.w3.org/2000/svg">
<g filter="url(#filter0_d_104_10)">
<path d="M31.6925 10.808V5.80798H26.6925H14.5325H9.5325V10.808V99V104H14.5325H61.5085H65.8896L66.4652 99.6569L67.8732 89.0329L68.6229 83.376H62.9165H31.6925V10.808ZM110.163 10.808V5.80798H105.163H93.0025H88.0025V10.808V99V104H93.0025H105.163H110.163V99V10.808ZM193.918 101.229L193.932 101.221L193.947 101.213C199.432 98.2215 203.694 94.0493 206.571 88.7122C209.497 83.3586 210.889 77.3117 210.889 70.712V10.808V5.80798H205.889H193.601H188.601V10.808V69.816C188.601 76.0763 187.201 79.805 185.297 81.9359C183.494 83.8736 180.376 85.296 174.913 85.296C169.573 85.296 166.497 83.8538 164.677 81.8312C162.754 79.6946 161.353 75.9944 161.353 69.816V10.808V5.80798H156.353H144.193H139.193V10.808V70.712C139.193 80.793 142.175 89.3837 148.537 95.951L148.565 95.9795L148.593 96.0075C155.158 102.572 164.176 105.536 174.913 105.536C182.028 105.536 188.428 104.177 193.918 101.229ZM302.001 11.4206L302.694 5.80798H297.039H234.062H229.062V10.808V21.176V26.176H234.062H254.151V99V104H259.151H271.311H276.311V99V26.176H295.759H300.179L300.721 21.7886L302.001 11.4206Z" stroke="white" stroke-width="10"  shape-rendering="crispEdges"/>
</g>
<defs>
<filter id="filter0_d_104_10" x="0.532501" y="0.807983" width="311.816" height="117.728" filterUnits="userSpaceOnUse" color-interpolation-filters="sRGB">
<feFlood flood-opacity="0" result="BackgroundImageFix"/>
<feColorMatrix in="SourceAlpha" type="matrix" values="0 0 0 0 0 0 0 0 0 0 0 0 0 0 0 0 0 0 127 0" result="hardAlpha"/>
<feOffset dy="4"/>
<feGaussianBlur stdDeviation="2"/>
<feComposite in2="hardAlpha" operator="out"/>
<feColorMatrix type="matrix" values="0 0 0 0 0 0 0 0 0 0 0 0 0 0 0 0 0 0 0.25 0"/>
<feBlend mode="normal" in2="BackgroundImageFix" result="effect1_dropShadow_104_10"/>
<feBlend mode="normal" in="SourceGraphic" in2="effect1_dropShadow_104_10" result="shape"/>
</filter>
</defs>
</svg>
